<svg width="124" height="92" viewBox="0 0 124 92" fill="none" xmlns="http://www.w3.org/2000/svg">
<g filter="url(#filter0_d_16_119)">
<rect width="59.7692" height="59.7692" rx="10" transform="matrix(0.866025 -0.5 0.866025 0.5 10.3926 44.4006)" fill="url(#paint0_linear_16_119)" shape-rendering="crispEdges"/>
</g>
<rect x="3.62835" width="55.5796" height="55.5796" rx="7.90517" transform="matrix(0.866025 -0.5 0.866025 0.5 1.48611 31.6993)" stroke="url(#paint1_linear_16_119)" stroke-width="4.18966"/>
<g filter="url(#filter1_d_16_119)">
<rect width="59.7692" height="59.7692" rx="10" transform="matrix(0.866025 -0.5 0.866025 0.5 10.4771 29.8852)" fill="url(#paint2_linear_16_119)"/>
</g>
<path d="M33 28.1455L64.9373 42.7733L79.6675 37.9435L88.0368 29.438L62.6985 11.0005L33 28.1455ZM39.7353 27.9311L62.3272 14.8888L82.6383 29.6699L76.3705 36.0366L65.3423 39.6549L39.7353 27.9311ZM46.3034 27.8132L57.2381 33.1431L68.2292 26.7979L72.2361 29.5435L69.5124 32.0344L65.1357 33.6462L63.3775 32.7884L60.2358 34.6021L64.7588 36.8094L73.223 34.291L73.3097 34.266L77.7215 29.326L68.3493 22.9147L56.798 29.5833L53.0423 27.7475L65.1724 20.7448L62.1447 18.6681L46.3034 27.8132Z" fill="#222324"/>
<defs>
<filter id="filter0_d_16_119" x="0.46582" y="7.44489" width="123.377" height="83.9114" filterUnits="userSpaceOnUse" color-interpolation-filters="sRGB">
<feFlood flood-opacity="0" result="BackgroundImageFix"/>
<feColorMatrix in="SourceAlpha" type="matrix" values="0 0 0 0 0 0 0 0 0 0 0 0 0 0 0 0 0 0 127 0" result="hardAlpha"/>
<feMorphology radius="1" operator="dilate" in="SourceAlpha" result="effect1_dropShadow_16_119"/>
<feOffset dy="5"/>
<feGaussianBlur stdDeviation="7"/>
<feComposite in2="hardAlpha" operator="out"/>
<feColorMatrix type="matrix" values="0 0 0 0 0 0 0 0 0 0 0 0 0 0 0 0 0 0 0.75 0"/>
<feBlend mode="normal" in2="BackgroundImageFix" result="effect1_dropShadow_16_119"/>
<feBlend mode="normal" in="SourceGraphic" in2="effect1_dropShadow_16_119" result="shape"/>
</filter>
<filter id="filter1_d_16_119" x="9.96409" y="2.92947" width="104.549" height="65.0838" filterUnits="userSpaceOnUse" color-interpolation-filters="sRGB">
<feFlood flood-opacity="0" result="BackgroundImageFix"/>
<feColorMatrix in="SourceAlpha" type="matrix" values="0 0 0 0 0 0 0 0 0 0 0 0 0 0 0 0 0 0 127 0" result="hardAlpha"/>
<feOffset dy="5.58621"/>
<feGaussianBlur stdDeviation="2.7931"/>
<feColorMatrix type="matrix" values="0 0 0 0 0 0 0 0 0 0 0 0 0 0 0 0 0 0 0.25 0"/>
<feBlend mode="normal" in2="BackgroundImageFix" result="effect1_dropShadow_16_119"/>
<feBlend mode="normal" in="SourceGraphic" in2="effect1_dropShadow_16_119" result="shape"/>
</filter>
<linearGradient id="paint0_linear_16_119" x1="48.9361" y1="8.21827" x2="11.5803" y2="52.2981" gradientUnits="userSpaceOnUse">
<stop stop-color="#303030"/>
<stop offset="1" stop-color="#303030" stop-opacity="0"/>
</linearGradient>
<linearGradient id="paint1_linear_16_119" x1="48.9361" y1="8.21827" x2="11.5803" y2="52.2981" gradientUnits="userSpaceOnUse">
<stop stop-color="#FDFDFD"/>
<stop offset="1" stop-color="#FDFDFD" stop-opacity="0"/>
</linearGradient>
<linearGradient id="paint2_linear_16_119" x1="0" y1="59.7692" x2="59.7692" y2="0" gradientUnits="userSpaceOnUse">
<stop stop-color="#0093E9"/>
<stop offset="1" stop-color="#80D0C7"/>
</linearGradient>
</defs>
</svg>
