<svg width="56" height="32" viewBox="0 0 56 32" fill="none" xmlns="http://www.w3.org/2000/svg">
<path d="M0 17.1449L31.9373 31.7728L46.6675 26.9429L55.0368 18.4374L29.6985 -7.82204e-06L0 17.1449ZM6.73528 16.9306L29.3272 3.88827L49.6383 18.6694L43.3705 25.036L32.3423 28.6544L6.73528 16.9306ZM13.3034 16.8127L24.2381 22.1425L35.2292 15.7974L39.2361 18.543L36.5124 21.0339L32.1357 22.6456L30.3775 21.7878L27.2358 23.6015L31.7588 25.8088L40.223 23.2904L40.3097 23.2654L44.7215 18.3254L35.3493 11.9142L23.798 18.5828L20.0423 16.7469L32.1724 9.74424L29.1447 7.66754L13.3034 16.8127Z" fill="#222324"/>
</svg>
