<svg width="124" height="92" viewBox="0 0 124 92" fill="none" xmlns="http://www.w3.org/2000/svg">
<g filter="url(#filter0_d_17_26)">
<rect width="59.7692" height="59.7692" rx="10" transform="matrix(0.866025 -0.5 0.866025 0.5 10.3926 44.4)" fill="url(#paint0_linear_17_26)" shape-rendering="crispEdges"/>
</g>
<rect x="3.62835" width="55.5796" height="55.5796" rx="7.90517" transform="matrix(0.866025 -0.5 0.866025 0.5 1.48611 31.6988)" stroke="url(#paint1_linear_17_26)" stroke-width="4.18966"/>
<g filter="url(#filter1_d_17_26)">
<rect width="59.7692" height="59.7692" rx="10" transform="matrix(0.866025 -0.5 0.866025 0.5 10.4771 29.8846)" fill="url(#paint2_linear_17_26)"/>
</g>
<path d="M53.0633 14.4563C52.3939 14.8179 51.8273 15.2739 51.3653 15.7922C50.4411 16.8289 49.8653 18.1419 49.5787 19.665C49.4664 20.2619 49.4148 20.8998 49.3934 21.5575C48.2812 21.5706 47.2005 21.6008 46.1894 21.6642C43.5532 21.8295 41.284 22.1605 39.4924 22.6928C37.7007 23.225 36.3372 23.9967 35.8611 25.0021C35.3851 26.0075 35.8835 27.0608 36.9649 28.0286C38.0463 28.9963 39.7195 29.9263 41.8566 30.8151C42.599 31.1238 43.4185 31.4241 44.2695 31.7208C43.8257 32.1961 43.41 32.6665 43.0597 33.1231C42.0025 34.5009 41.373 35.7825 41.2819 36.9278C41.1907 38.073 41.6694 39.1228 42.9305 39.8509C44.1917 40.579 46.0085 40.8544 47.9924 40.8017C49.9762 40.7491 52.1979 40.3866 54.5845 39.7763C55.4301 39.5601 56.3027 39.3012 57.1851 39.0233C57.8457 39.6879 58.526 40.31 59.2238 40.8693C60.7646 42.104 62.3753 43.0703 64.0554 43.696C65.7355 44.3217 67.5671 44.6131 69.3173 44.3369C71.0674 44.0607 72.4079 43.2688 73.3321 42.2322C74.2562 41.1955 74.832 39.8844 75.1186 38.3613C75.2299 37.7699 75.2835 37.1376 75.3053 36.4865C76.439 36.474 77.5401 36.4431 78.5691 36.3786C81.2053 36.2133 83.4761 35.8814 85.2677 35.3491C87.0594 34.8168 88.4213 34.0461 88.8973 33.0407C89.3734 32.0353 88.8749 30.982 87.7935 30.0142C86.7121 29.0465 85.0373 28.1174 82.9002 27.2287C81.9289 26.8247 80.8497 26.4313 79.6946 26.049C80.1936 25.5237 80.6573 25.0046 81.043 24.5018C82.1002 23.124 82.7281 21.8415 82.8192 20.6962C82.9104 19.5509 82.4334 18.5021 81.1722 17.774C79.911 17.0459 78.0926 16.7696 76.1087 16.8222C74.1249 16.8749 71.9048 17.2383 69.5182 17.8486C68.716 18.0537 67.8892 18.2976 67.0536 18.5583C66.5369 18.0638 66.0131 17.5872 65.4751 17.1561C63.9343 15.9213 62.3221 14.9541 60.6419 14.3284C58.9618 13.7027 57.1303 13.4132 55.3801 13.6893C54.505 13.8274 53.7327 14.0947 53.0633 14.4563ZM54.6586 15.4654C55.0762 15.237 55.5187 15.092 55.9847 15.0184C56.9166 14.8714 58.0143 14.9986 59.3329 15.4897C60.6515 15.9808 62.1089 16.8315 63.5322 17.9721C64.0195 18.3626 64.4989 18.7979 64.9748 19.2527C62.8712 20.0004 60.709 20.9021 58.5482 21.9459C56.1859 21.7333 53.9192 21.6078 51.783 21.5672C51.8022 20.9477 51.852 20.3501 51.9558 19.7986C52.2205 18.3916 52.7604 17.2266 53.4857 16.4129C53.8483 16.0061 54.2411 15.6937 54.6586 15.4654ZM38.8941 24.5718C39.2918 24.3292 39.8337 24.1018 40.5404 23.8918C41.9538 23.4719 43.9738 23.1587 46.4131 23.0058C47.349 22.9471 48.3616 22.919 49.4105 22.9072C49.4822 24.1498 49.7053 25.47 50.0791 26.8443C48.2813 28.0896 46.7289 29.3356 45.4431 30.5469C44.6592 30.2733 43.9095 29.9969 43.236 29.7168C41.2586 28.8945 39.7844 28.0514 38.9313 27.2879C38.0782 26.5245 37.858 25.8868 38.1151 25.3438C38.2436 25.0723 38.4965 24.8144 38.8941 24.5718ZM51.8049 22.9196C53.2098 22.9492 54.684 23.0183 56.2127 23.1256C55.5257 23.4908 54.8417 23.8671 54.1633 24.2587C53.4715 24.6581 52.8075 25.0606 52.1632 25.4652C51.9769 24.5821 51.8565 23.7312 51.8049 22.9196ZM55.8221 25.2163C56.9522 24.5639 58.0995 23.9546 59.2485 23.3809C61.0322 23.5595 62.8629 23.7846 64.7245 24.0667C66.3602 24.3146 67.937 24.5947 69.452 24.8957C69.9816 25.7811 70.4716 26.7047 70.907 27.6621C71.2902 28.5048 71.6033 29.3346 71.8758 30.1516C70.7656 30.9079 69.5673 31.6639 68.279 32.4077C66.9597 33.1693 65.6186 33.8755 64.2769 34.5291C62.8834 34.3733 61.4672 34.1938 60.0307 33.9761C58.3762 33.7254 56.7825 33.443 55.2517 33.138C54.7197 32.2497 54.2256 31.3239 53.7887 30.3633C53.3026 29.2942 52.917 28.2423 52.6087 27.2178C53.6122 26.5468 54.679 25.8762 55.8221 25.2163ZM61.5946 22.2636C63.1328 21.5706 64.6531 20.9639 66.131 20.4356C66.9267 21.305 67.6913 22.2516 68.4018 23.2737C67.4018 23.0938 66.3873 22.9197 65.3428 22.7614C64.0776 22.5697 62.8299 22.4094 61.5946 22.2636ZM50.6326 28.6068C50.8818 29.3063 51.1553 30.0109 51.4809 30.7268C51.7586 31.3376 52.0617 31.9326 52.3777 32.517C50.6191 32.1085 48.989 31.6696 47.4921 31.2125C48.3981 30.3638 49.4431 29.4907 50.6326 28.6068ZM68.2115 19.7383C68.9768 19.5 69.7295 19.2777 70.4528 19.0927C72.6529 18.5301 74.6342 18.2242 76.1902 18.1829C77.7462 18.1416 78.8073 18.3464 79.494 18.7428C80.1807 19.1393 80.5354 19.7518 80.4639 20.6501C80.3924 21.5484 79.8624 22.6922 78.8879 23.9623C78.5319 24.4263 78.0977 24.9113 77.6277 25.4048C75.7106 24.8436 73.6003 24.3217 71.344 23.8479C70.4029 22.3517 69.3474 20.9726 68.2115 19.7383ZM46.3136 32.3893C48.4294 33.0388 50.7929 33.6433 53.3549 34.183C54.1799 35.4935 55.0895 36.7184 56.0676 37.831C55.2413 38.0918 54.4282 38.3332 53.6499 38.5322C51.4498 39.0948 49.4686 39.4007 47.9125 39.442C46.3565 39.4833 45.2954 39.2785 44.6087 38.8821C43.922 38.4856 43.5673 37.8731 43.6388 36.9748C43.7103 36.0765 44.2403 34.9327 45.2148 33.6626C45.5303 33.2515 45.9084 32.8239 46.3136 32.3893ZM58.2782 26.6342C55.9933 27.9533 55.9717 30.0999 58.2301 31.4037C60.4885 32.7075 64.207 32.695 66.4919 31.376C68.7768 30.0569 68.7984 27.9102 66.54 26.6064C64.2816 25.3027 60.5631 25.3152 58.2782 26.6342ZM59.9209 27.5826C61.3076 26.782 63.5074 26.7746 64.878 27.5659C66.2486 28.3572 66.2358 29.6271 64.8491 30.4276C63.4625 31.2281 61.2627 31.2355 59.8921 30.4443C58.5215 29.653 58.5343 28.3831 59.9209 27.5826ZM72.3196 25.5111C73.7749 25.8481 75.1513 26.2053 76.4315 26.5769C75.6612 27.2861 74.7901 28.0118 73.8231 28.7459C73.6371 28.2665 73.4377 27.784 73.2164 27.2975C72.9391 26.6878 72.635 26.0945 72.3196 25.5111ZM56.3019 34.7599C57.3185 34.9433 58.3513 35.1194 59.4141 35.2805C60.2461 35.4066 61.0722 35.5217 61.8923 35.628C60.6233 36.1839 59.3688 36.6845 58.1433 37.1273C57.5011 36.3907 56.8846 35.5972 56.3019 34.7599ZM59.2592 38.3242C61.1153 37.6593 63.0159 36.8744 64.9206 35.9783C67.7247 36.2645 70.4081 36.4263 72.9141 36.4759C72.8945 37.0892 72.8476 37.6812 72.7448 38.2277C72.48 39.6346 71.9369 40.7997 71.2116 41.6133C70.4863 42.4269 69.6446 42.8607 68.7127 43.0078C67.7807 43.1549 66.6847 43.0267 65.366 42.5356C64.0474 42.0445 62.59 41.1957 61.1667 40.0551C60.521 39.5377 59.8827 38.953 59.2592 38.3242ZM78.5065 27.2201C79.6021 27.5818 80.6196 27.9521 81.5208 28.3269C83.4983 29.1493 84.9708 29.9914 85.8239 30.7549C86.677 31.5183 86.9005 32.156 86.6434 32.699C86.3863 33.242 85.6299 33.732 84.2164 34.1519C82.803 34.5719 80.7814 34.8841 78.3422 35.0371C77.3887 35.0968 76.3571 35.1247 75.2867 35.1358C75.2037 33.6817 74.9245 32.1228 74.4267 30.4942C75.9845 29.3927 77.3502 28.2938 78.5065 27.2201ZM67.2574 34.8237C68.1566 34.3577 69.0522 33.8766 69.9378 33.3653C70.7941 32.8709 71.6014 32.3712 72.3845 31.8694C72.6662 33.0071 72.8293 34.0952 72.8939 35.1224C71.1131 35.0837 69.2281 34.9876 67.2574 34.8237Z" fill="#222324"/>
<defs>
<filter id="filter0_d_17_26" x="0.46582" y="7.44432" width="123.377" height="83.9114" filterUnits="userSpaceOnUse" color-interpolation-filters="sRGB">
<feFlood flood-opacity="0" result="BackgroundImageFix"/>
<feColorMatrix in="SourceAlpha" type="matrix" values="0 0 0 0 0 0 0 0 0 0 0 0 0 0 0 0 0 0 127 0" result="hardAlpha"/>
<feMorphology radius="1" operator="dilate" in="SourceAlpha" result="effect1_dropShadow_17_26"/>
<feOffset dy="5"/>
<feGaussianBlur stdDeviation="7"/>
<feComposite in2="hardAlpha" operator="out"/>
<feColorMatrix type="matrix" values="0 0 0 0 0 0 0 0 0 0 0 0 0 0 0 0 0 0 0.75 0"/>
<feBlend mode="normal" in2="BackgroundImageFix" result="effect1_dropShadow_17_26"/>
<feBlend mode="normal" in="SourceGraphic" in2="effect1_dropShadow_17_26" result="shape"/>
</filter>
<filter id="filter1_d_17_26" x="9.96409" y="2.92892" width="104.549" height="65.0838" filterUnits="userSpaceOnUse" color-interpolation-filters="sRGB">
<feFlood flood-opacity="0" result="BackgroundImageFix"/>
<feColorMatrix in="SourceAlpha" type="matrix" values="0 0 0 0 0 0 0 0 0 0 0 0 0 0 0 0 0 0 127 0" result="hardAlpha"/>
<feOffset dy="5.58621"/>
<feGaussianBlur stdDeviation="2.7931"/>
<feColorMatrix type="matrix" values="0 0 0 0 0 0 0 0 0 0 0 0 0 0 0 0 0 0 0.25 0"/>
<feBlend mode="normal" in2="BackgroundImageFix" result="effect1_dropShadow_17_26"/>
<feBlend mode="normal" in="SourceGraphic" in2="effect1_dropShadow_17_26" result="shape"/>
</filter>
<linearGradient id="paint0_linear_17_26" x1="48.9361" y1="8.21827" x2="11.5803" y2="52.2981" gradientUnits="userSpaceOnUse">
<stop stop-color="#303030"/>
<stop offset="1" stop-color="#303030" stop-opacity="0"/>
</linearGradient>
<linearGradient id="paint1_linear_17_26" x1="48.9361" y1="8.21827" x2="11.5803" y2="52.2981" gradientUnits="userSpaceOnUse">
<stop stop-color="#FDFDFD"/>
<stop offset="1" stop-color="#FDFDFD" stop-opacity="0"/>
</linearGradient>
<linearGradient id="paint2_linear_17_26" x1="0" y1="59.7692" x2="59.7692" y2="0" gradientUnits="userSpaceOnUse">
<stop stop-color="#0093E9"/>
<stop offset="1" stop-color="#80D0C7"/>
</linearGradient>
</defs>
</svg>
