<svg width="54" height="53" viewBox="0 0 54 53" fill="none" xmlns="http://www.w3.org/2000/svg">
<path d="M27 0C12.0915 0 0 12.0893 0 27C0 38.9295 7.7355 49.05 18.4657 52.6207C19.8135 52.8705 20.25 52.0335 20.25 51.3225V46.296C12.7395 47.9295 11.1757 43.11 11.1757 43.11C9.94725 39.9893 8.1765 39.159 8.1765 39.159C5.72625 37.4827 8.36325 37.5187 8.36325 37.5187C11.0745 37.7077 12.501 40.302 12.501 40.302C14.9085 44.4285 18.8168 43.236 20.358 42.5452C20.5988 40.8015 21.2985 39.609 22.0725 38.9362C16.0763 38.25 9.77175 35.9347 9.77175 25.5915C9.77175 22.6417 10.827 20.2342 12.5527 18.3442C12.2738 17.6625 11.349 14.9153 12.816 11.1983C12.816 11.1983 15.084 10.4737 20.2432 13.9657C22.3965 13.3672 24.705 13.068 27 13.0568C29.295 13.068 31.6057 13.3672 33.7635 13.9657C38.9182 10.4737 41.1817 11.1983 41.1817 11.1983C42.651 14.9175 41.7262 17.6647 41.4473 18.3442C43.1797 20.2342 44.226 22.644 44.226 25.5915C44.226 35.9618 37.9103 38.2455 31.8983 38.9137C32.8657 39.7508 33.75 41.3932 33.75 43.9132V51.3225C33.75 52.0402 34.182 52.884 35.5522 52.6185C46.2735 49.0433 54 38.925 54 27C54 12.0893 41.9108 0 27 0Z" fill="url(#paint0_linear_17_346)"/>
<defs>
<linearGradient id="paint0_linear_17_346" x1="0" y1="26.3343" x2="53.5415" y2="21.3797" gradientUnits="userSpaceOnUse">
<stop stop-color="#0093E9"/>
<stop offset="1" stop-color="#80D0C7"/>
</linearGradient>
</defs>
</svg>
