<svg width="54" height="54" viewBox="0 0 54 54" fill="none" xmlns="http://www.w3.org/2000/svg">
<g clip-path="url(#clip0_17_344)">
<path d="M27 4.86675C34.209 4.86675 35.064 4.89375 37.9125 5.02425C45.2295 5.35725 48.6472 8.829 48.9802 16.092C49.1107 18.9382 49.1355 19.7933 49.1355 27.0023C49.1355 34.2135 49.1085 35.0662 48.9802 37.9125C48.645 45.1688 45.2363 48.6472 37.9125 48.9802C35.064 49.1107 34.2135 49.1378 27 49.1378C19.791 49.1378 18.936 49.1107 16.0898 48.9802C8.75475 48.645 5.355 45.1575 5.022 37.9103C4.8915 35.064 4.8645 34.2113 4.8645 27C4.8645 19.791 4.89375 18.9382 5.022 16.0898C5.35725 8.829 8.766 5.355 16.0898 5.022C18.9382 4.89375 19.791 4.86675 27 4.86675ZM27 0C19.6672 0 18.7493 0.0315 15.8693 0.162C6.06375 0.612 0.61425 6.0525 0.16425 15.867C0.0315 18.7493 0 19.6672 0 27C0 34.3327 0.0315 35.253 0.162 38.133C0.612 47.9385 6.0525 53.388 15.867 53.838C18.7493 53.9685 19.6672 54 27 54C34.3327 54 35.253 53.9685 38.133 53.838C47.9295 53.388 53.3925 47.9475 53.8358 38.133C53.9685 35.253 54 34.3327 54 27C54 19.6672 53.9685 18.7493 53.838 15.8693C53.397 6.07275 47.9497 0.61425 38.1353 0.16425C35.253 0.0315 34.3327 0 27 0V0ZM27 13.1355C19.3433 13.1355 13.1355 19.3433 13.1355 27C13.1355 34.6567 19.3433 40.8667 27 40.8667C34.6567 40.8667 40.8645 34.659 40.8645 27C40.8645 19.3433 34.6567 13.1355 27 13.1355ZM27 36C22.0297 36 18 31.9725 18 27C18 22.0297 22.0297 18 27 18C31.9703 18 36 22.0297 36 27C36 31.9725 31.9703 36 27 36ZM41.4135 9.34875C39.6225 9.34875 38.1712 10.8 38.1712 12.5887C38.1712 14.3775 39.6225 15.8287 41.4135 15.8287C43.2023 15.8287 44.6512 14.3775 44.6512 12.5887C44.6512 10.8 43.2023 9.34875 41.4135 9.34875Z" fill="url(#paint0_linear_17_344)"/>
</g>
<defs>
<linearGradient id="paint0_linear_17_344" x1="0" y1="27" x2="53.5637" y2="22.1656" gradientUnits="userSpaceOnUse">
<stop stop-color="#0093E9"/>
<stop offset="1" stop-color="#80D0C7"/>
</linearGradient>
<clipPath id="clip0_17_344">
<rect width="54" height="54" fill="white"/>
</clipPath>
</defs>
</svg>
