<svg width="54" height="54" viewBox="0 0 54 54" fill="none" xmlns="http://www.w3.org/2000/svg">
<path d="M47.5714 0H6.42857C2.88 0 0 2.88 0 6.42857V47.5714C0 51.12 2.88 54 6.42857 54H47.5714C51.12 54 54 51.12 54 47.5714V6.42857C54 2.88 51.12 0 47.5714 0ZM16.7143 20.5714V45H9V20.5714H16.7143ZM9 13.4614C9 11.6614 10.5429 10.2857 12.8571 10.2857C15.1714 10.2857 16.6243 11.6614 16.7143 13.4614C16.7143 15.2614 15.2743 16.7143 12.8571 16.7143C10.5429 16.7143 9 15.2614 9 13.4614ZM45 45H37.2857C37.2857 45 37.2857 33.0943 37.2857 32.1429C37.2857 29.5714 36 27 32.7857 26.9486H32.6829C29.5714 26.9486 28.2857 29.5971 28.2857 32.1429C28.2857 33.3129 28.2857 45 28.2857 45H20.5714V20.5714H28.2857V23.8629C28.2857 23.8629 30.7671 20.5714 35.7557 20.5714C40.86 20.5714 45 24.0814 45 31.1914V45Z" fill="url(#paint0_linear_17_341)"/>
<defs>
<linearGradient id="paint0_linear_17_341" x1="0" y1="27" x2="53.5637" y2="22.1656" gradientUnits="userSpaceOnUse">
<stop stop-color="#0093E9"/>
<stop offset="1" stop-color="#80D0C7"/>
</linearGradient>
</defs>
</svg>
