<svg width="54" height="54" viewBox="0 0 54 54" fill="none" xmlns="http://www.w3.org/2000/svg">
<g clip-path="url(#clip0_17_342)">
<path d="M42.75 0H11.25C5.03775 0 0 5.03775 0 11.25V42.75C0 48.9622 5.03775 54 11.25 54H42.75C48.9645 54 54 48.9622 54 42.75V11.25C54 5.03775 48.9645 0 42.75 0ZM42.4372 20.7833C42.9075 31.1715 35.1608 42.7545 21.4447 42.7545C17.2733 42.7545 13.392 41.5327 10.1228 39.4358C14.0422 39.897 17.9528 38.8102 21.0578 36.378C17.8245 36.3172 15.0975 34.182 14.1593 31.248C15.318 31.4685 16.4565 31.4032 17.4937 31.122C13.941 30.4087 11.4908 27.2092 11.5695 23.787C12.564 24.3405 13.7047 24.6735 14.913 24.7118C11.6257 22.5135 10.6943 18.171 12.627 14.85C16.2698 19.3185 21.7125 22.2592 27.8505 22.5675C26.7728 17.9482 30.2805 13.5 35.0482 13.5C37.17 13.5 39.0915 14.3955 40.437 15.8333C42.12 15.5025 43.7018 14.8883 45.1305 14.0423C44.577 15.768 43.407 17.2148 41.8838 18.1283C43.3778 17.9482 44.802 17.5522 46.125 16.965C45.1372 18.441 43.884 19.7415 42.4372 20.7833Z" fill="url(#paint0_linear_17_342)"/>
</g>
<defs>
<linearGradient id="paint0_linear_17_342" x1="0" y1="27" x2="53.5637" y2="22.1656" gradientUnits="userSpaceOnUse">
<stop stop-color="#0093E9"/>
<stop offset="1" stop-color="#80D0C7"/>
</linearGradient>
<clipPath id="clip0_17_342">
<rect width="54" height="54" fill="white"/>
</clipPath>
</defs>
</svg>
