<svg width="50" height="50" viewBox="0 0 50 50" fill="none" xmlns="http://www.w3.org/2000/svg">
<path d="M24.1224 5.37275C24.3974 5.37275 24.6704 5.37275 24.9412 5.37275C22.2648 7.85964 20.5445 11.2058 20.0793 14.8295C19.6141 18.4532 20.4334 22.1253 22.3948 25.2076C24.3562 28.2899 27.3357 30.5874 30.8154 31.7008C34.295 32.8142 38.0548 32.6731 41.4412 31.3019C40.1385 34.4363 38.0095 37.1582 35.2812 39.1775C32.5528 41.1967 29.3275 42.4374 25.9493 42.7673C22.5711 43.0972 19.1667 42.5039 16.0993 41.0507C13.0318 39.5974 10.4164 37.3388 8.53199 34.5157C6.64756 31.6925 5.56483 28.4108 5.39927 25.0206C5.23372 21.6304 5.99156 18.2588 7.59195 15.2655C9.19235 12.2722 11.5753 9.76946 14.4865 8.02427C17.3978 6.27909 20.7282 5.3569 24.1224 5.35608V5.37275Z" stroke="black" stroke-width="3.76" stroke-linecap="round" stroke-linejoin="round"/>
</svg>
